<?xml version="1.0" encoding="UTF-8" standalone="no"?>
<!-- This is a Stata 15.1 generated SVG file (http://www.stata.com) -->

<svg version="1.1" width="5.50in" height="4.00in" viewBox="0 0 3960 2880" xmlns="http://www.w3.org/2000/svg" xmlns:xlink="http://www.w3.org/1999/xlink">
	<desc>Stata Graph - Graph</desc>
	<rect x="0" y="0" width="3960" height="2880" style="fill:#EAF2F3;stroke:none"/>
	<rect x="0.00" y="0.00" width="3959.88" height="2880.00" style="fill:#EAF2F3"/>
	<rect x="2.88" y="2.88" width="3954.12" height="2874.24" style="fill:none;stroke:#EAF2F3;stroke-width:5.76"/>
	<rect x="390.80" y="261.37" width="3468.22" height="1972.27" style="fill:#FFFFFF"/>
	<rect x="393.68" y="264.25" width="3462.46" height="1966.51" style="fill:none;stroke:#FFFFFF;stroke-width:5.76"/>
	<line x1="390.80" y1="2170.27" x2="3859.02" y2="2170.27" style="stroke:#EAF2F3;stroke-width:8.64"/>
	<line x1="390.80" y1="1555.09" x2="3859.02" y2="1555.09" style="stroke:#EAF2F3;stroke-width:8.64"/>
	<line x1="390.80" y1="939.91" x2="3859.02" y2="939.91" style="stroke:#EAF2F3;stroke-width:8.64"/>
	<line x1="390.80" y1="324.73" x2="3859.02" y2="324.73" style="stroke:#EAF2F3;stroke-width:8.64"/>
	<line x1="454.16" y1="2149.48" x2="454.16" y2="2101.71" style="stroke:#1A476F;stroke-width:8.64"/>
	<line x1="432.13" y1="2101.71" x2="476.19" y2="2101.71" stroke-linecap="round" style="stroke:#1A476F;stroke-width:8.64"/>
	<line x1="432.13" y1="2149.48" x2="476.19" y2="2149.48" stroke-linecap="round" style="stroke:#1A476F;stroke-width:8.64"/>
	<line x1="1122.41" y1="2117.06" x2="1122.41" y2="2041.69" style="stroke:#1A476F;stroke-width:8.64"/>
	<line x1="1100.38" y1="2041.69" x2="1144.44" y2="2041.69" stroke-linecap="round" style="stroke:#1A476F;stroke-width:8.64"/>
	<line x1="1100.38" y1="2117.06" x2="1144.44" y2="2117.06" stroke-linecap="round" style="stroke:#1A476F;stroke-width:8.64"/>
	<line x1="1790.79" y1="2040.95" x2="1790.79" y2="1930.81" style="stroke:#1A476F;stroke-width:8.64"/>
	<line x1="1768.76" y1="1930.81" x2="1812.81" y2="1930.81" stroke-linecap="round" style="stroke:#1A476F;stroke-width:8.64"/>
	<line x1="1768.76" y1="2040.95" x2="1812.81" y2="2040.95" stroke-linecap="round" style="stroke:#1A476F;stroke-width:8.64"/>
	<line x1="2459.04" y1="1871.78" x2="2459.04" y2="1727.11" style="stroke:#1A476F;stroke-width:8.64"/>
	<line x1="2437.01" y1="1727.11" x2="2481.06" y2="1727.11" stroke-linecap="round" style="stroke:#1A476F;stroke-width:8.64"/>
	<line x1="2437.01" y1="1871.78" x2="2481.06" y2="1871.78" stroke-linecap="round" style="stroke:#1A476F;stroke-width:8.64"/>
	<line x1="3127.41" y1="1532.82" x2="3127.41" y2="1338.77" style="stroke:#1A476F;stroke-width:8.64"/>
	<line x1="3105.38" y1="1338.77" x2="3149.44" y2="1338.77" stroke-linecap="round" style="stroke:#1A476F;stroke-width:8.64"/>
	<line x1="3105.38" y1="1532.82" x2="3149.44" y2="1532.82" stroke-linecap="round" style="stroke:#1A476F;stroke-width:8.64"/>
	<line x1="3795.66" y1="973.70" x2="3795.66" y2="542.17" style="stroke:#1A476F;stroke-width:8.64"/>
	<line x1="3773.63" y1="542.17" x2="3817.69" y2="542.17" stroke-linecap="round" style="stroke:#1A476F;stroke-width:8.64"/>
	<line x1="3773.63" y1="973.70" x2="3817.69" y2="973.70" stroke-linecap="round" style="stroke:#1A476F;stroke-width:8.64"/>
	<line x1="454.16" y1="2095.03" x2="454.16" y2="2006.17" style="stroke:#90353B;stroke-width:8.64"/>
	<line x1="432.13" y1="2006.17" x2="476.19" y2="2006.17" stroke-linecap="round" style="stroke:#90353B;stroke-width:8.64"/>
	<line x1="432.13" y1="2095.03" x2="476.19" y2="2095.03" stroke-linecap="round" style="stroke:#90353B;stroke-width:8.64"/>
	<line x1="1122.41" y1="2029.19" x2="1122.41" y2="1916.20" style="stroke:#90353B;stroke-width:8.64"/>
	<line x1="1100.38" y1="1916.20" x2="1144.44" y2="1916.20" stroke-linecap="round" style="stroke:#90353B;stroke-width:8.64"/>
	<line x1="1100.38" y1="2029.19" x2="1144.44" y2="2029.19" stroke-linecap="round" style="stroke:#90353B;stroke-width:8.64"/>
	<line x1="1790.79" y1="1912.37" x2="1790.79" y2="1778.47" style="stroke:#90353B;stroke-width:8.64"/>
	<line x1="1768.76" y1="1778.47" x2="1812.81" y2="1778.47" stroke-linecap="round" style="stroke:#90353B;stroke-width:8.64"/>
	<line x1="1768.76" y1="1912.37" x2="1812.81" y2="1912.37" stroke-linecap="round" style="stroke:#90353B;stroke-width:8.64"/>
	<line x1="2459.04" y1="1714.36" x2="2459.04" y2="1565.24" style="stroke:#90353B;stroke-width:8.64"/>
	<line x1="2437.01" y1="1565.24" x2="2481.06" y2="1565.24" stroke-linecap="round" style="stroke:#90353B;stroke-width:8.64"/>
	<line x1="2437.01" y1="1714.36" x2="2481.06" y2="1714.36" stroke-linecap="round" style="stroke:#90353B;stroke-width:8.64"/>
	<line x1="3127.41" y1="1410.67" x2="3127.41" y2="1216.25" style="stroke:#90353B;stroke-width:8.64"/>
	<line x1="3105.38" y1="1216.25" x2="3149.44" y2="1216.25" stroke-linecap="round" style="stroke:#90353B;stroke-width:8.64"/>
	<line x1="3105.38" y1="1410.67" x2="3149.44" y2="1410.67" stroke-linecap="round" style="stroke:#90353B;stroke-width:8.64"/>
	<line x1="3795.66" y1="999.31" x2="3795.66" y2="619.76" style="stroke:#90353B;stroke-width:8.64"/>
	<line x1="3773.63" y1="619.76" x2="3817.69" y2="619.76" stroke-linecap="round" style="stroke:#90353B;stroke-width:8.64"/>
	<line x1="3773.63" y1="999.31" x2="3817.69" y2="999.31" stroke-linecap="round" style="stroke:#90353B;stroke-width:8.64"/>
	<line x1="454.04" y1="2125.72" x2="1122.41" y2="2079.44" stroke-linecap="round" style="stroke:#1A476F;stroke-width:8.64"/>
	<line x1="1122.41" y1="2079.44" x2="1790.66" y2="1986.00" stroke-linecap="round" style="stroke:#1A476F;stroke-width:8.64"/>
	<line x1="1790.66" y1="1986.00" x2="2459.04" y2="1799.50" stroke-linecap="round" style="stroke:#1A476F;stroke-width:8.64"/>
	<line x1="2459.04" y1="1799.50" x2="3127.29" y2="1435.92" stroke-linecap="round" style="stroke:#1A476F;stroke-width:8.64"/>
	<line x1="3127.29" y1="1435.92" x2="3795.66" y2="757.99" stroke-linecap="round" style="stroke:#1A476F;stroke-width:8.64"/>
	<circle cx="454.04" cy="2125.72" r="26.35" style="fill:#1A476F"/>
	<circle cx="454.04" cy="2125.72" r="22.03" style="fill:none;stroke:#1A476F;stroke-width:8.64"/>
	<circle cx="1122.41" cy="2079.44" r="26.35" style="fill:#1A476F"/>
	<circle cx="1122.41" cy="2079.44" r="22.03" style="fill:none;stroke:#1A476F;stroke-width:8.64"/>
	<circle cx="1790.66" cy="1986.00" r="26.35" style="fill:#1A476F"/>
	<circle cx="1790.66" cy="1986.00" r="22.03" style="fill:none;stroke:#1A476F;stroke-width:8.64"/>
	<circle cx="2459.04" cy="1799.50" r="26.35" style="fill:#1A476F"/>
	<circle cx="2459.04" cy="1799.50" r="22.03" style="fill:none;stroke:#1A476F;stroke-width:8.64"/>
	<circle cx="3127.29" cy="1435.92" r="26.35" style="fill:#1A476F"/>
	<circle cx="3127.29" cy="1435.92" r="22.03" style="fill:none;stroke:#1A476F;stroke-width:8.64"/>
	<circle cx="3795.66" cy="757.99" r="26.35" style="fill:#1A476F"/>
	<circle cx="3795.66" cy="757.99" r="22.03" style="fill:none;stroke:#1A476F;stroke-width:8.64"/>
	<line x1="454.04" y1="2050.60" x2="1122.41" y2="1972.76" stroke-linecap="round" style="stroke:#90353B;stroke-width:8.64"/>
	<line x1="1122.41" y1="1972.76" x2="1790.66" y2="1845.54" stroke-linecap="round" style="stroke:#90353B;stroke-width:8.64"/>
	<line x1="1790.66" y1="1845.54" x2="2459.04" y2="1639.86" stroke-linecap="round" style="stroke:#90353B;stroke-width:8.64"/>
	<line x1="2459.04" y1="1639.86" x2="3127.29" y2="1313.52" stroke-linecap="round" style="stroke:#90353B;stroke-width:8.64"/>
	<line x1="3127.29" y1="1313.52" x2="3795.66" y2="809.60" stroke-linecap="round" style="stroke:#90353B;stroke-width:8.64"/>
	<circle cx="454.04" cy="2050.60" r="26.35" style="fill:#90353B"/>
	<circle cx="454.04" cy="2050.60" r="22.03" style="fill:none;stroke:#90353B;stroke-width:8.64"/>
	<circle cx="1122.41" cy="1972.76" r="26.35" style="fill:#90353B"/>
	<circle cx="1122.41" cy="1972.76" r="22.03" style="fill:none;stroke:#90353B;stroke-width:8.64"/>
	<circle cx="1790.66" cy="1845.54" r="26.35" style="fill:#90353B"/>
	<circle cx="1790.66" cy="1845.54" r="22.03" style="fill:none;stroke:#90353B;stroke-width:8.64"/>
	<circle cx="2459.04" cy="1639.86" r="26.35" style="fill:#90353B"/>
	<circle cx="2459.04" cy="1639.86" r="22.03" style="fill:none;stroke:#90353B;stroke-width:8.64"/>
	<circle cx="3127.29" cy="1313.52" r="26.35" style="fill:#90353B"/>
	<circle cx="3127.29" cy="1313.52" r="22.03" style="fill:none;stroke:#90353B;stroke-width:8.64"/>
	<circle cx="3795.66" cy="809.60" r="26.35" style="fill:#90353B"/>
	<circle cx="3795.66" cy="809.60" r="22.03" style="fill:none;stroke:#90353B;stroke-width:8.64"/>
	<line x1="390.80" y1="2233.63" x2="390.80" y2="261.37" style="stroke:#000000;stroke-width:5.76"/>
	<line x1="390.80" y1="2170.27" x2="350.83" y2="2170.27" style="stroke:#000000;stroke-width:5.76"/>
	<text x="300.72" y="2170.27" style="font-family:'Helvetica';font-size:99.99px;fill:#000000" transform="rotate(-90 300.72,2170.27)" text-anchor="middle">0</text>
	<line x1="390.80" y1="1555.09" x2="350.83" y2="1555.09" style="stroke:#000000;stroke-width:5.76"/>
	<text x="300.72" y="1555.09" style="font-family:'Helvetica';font-size:99.99px;fill:#000000" transform="rotate(-90 300.72,1555.09)" text-anchor="middle">.05</text>
	<line x1="390.80" y1="939.91" x2="350.83" y2="939.91" style="stroke:#000000;stroke-width:5.76"/>
	<text x="300.72" y="939.91" style="font-family:'Helvetica';font-size:99.99px;fill:#000000" transform="rotate(-90 300.72,939.91)" text-anchor="middle">.1</text>
	<line x1="390.80" y1="324.73" x2="350.83" y2="324.73" style="stroke:#000000;stroke-width:5.76"/>
	<text x="300.72" y="324.73" style="font-family:'Helvetica';font-size:99.99px;fill:#000000" transform="rotate(-90 300.72,324.73)" text-anchor="middle">.15</text>
	<text x="190.71" y="1247.56" style="font-family:'Helvetica';font-size:99.99px;fill:#000000" transform="rotate(-90 190.71,1247.56)" text-anchor="middle">Pr(Diabetes)</text>
	<line x1="390.80" y1="2233.63" x2="3859.02" y2="2233.63" style="stroke:#000000;stroke-width:5.76"/>
	<line x1="454.16" y1="2233.63" x2="454.16" y2="2273.73" style="stroke:#000000;stroke-width:5.76"/>
	<text x="454.16" y="2363.59" style="font-family:'Helvetica';font-size:99.99px;fill:#000000" text-anchor="middle">20</text>
	<line x1="1122.41" y1="2233.63" x2="1122.41" y2="2273.73" style="stroke:#000000;stroke-width:5.76"/>
	<text x="1122.41" y="2363.59" style="font-family:'Helvetica';font-size:99.99px;fill:#000000" text-anchor="middle">30</text>
	<line x1="1790.79" y1="2233.63" x2="1790.79" y2="2273.73" style="stroke:#000000;stroke-width:5.76"/>
	<text x="1790.79" y="2363.59" style="font-family:'Helvetica';font-size:99.99px;fill:#000000" text-anchor="middle">40</text>
	<line x1="2459.04" y1="2233.63" x2="2459.04" y2="2273.73" style="stroke:#000000;stroke-width:5.76"/>
	<text x="2459.04" y="2363.59" style="font-family:'Helvetica';font-size:99.99px;fill:#000000" text-anchor="middle">50</text>
	<line x1="3127.41" y1="2233.63" x2="3127.41" y2="2273.73" style="stroke:#000000;stroke-width:5.76"/>
	<text x="3127.41" y="2363.59" style="font-family:'Helvetica';font-size:99.99px;fill:#000000" text-anchor="middle">60</text>
	<line x1="3795.66" y1="2233.63" x2="3795.66" y2="2273.73" style="stroke:#000000;stroke-width:5.76"/>
	<text x="3795.66" y="2363.59" style="font-family:'Helvetica';font-size:99.99px;fill:#000000" text-anchor="middle">70</text>
	<text x="2124.91" y="2473.60" style="font-family:'Helvetica';font-size:99.99px;fill:#000000" text-anchor="middle">age in years</text>
	<rect x="1154.22" y="2558.24" width="1941.39" height="186.37" style="fill:#FFFFFF"/>
	<rect x="1157.10" y="2561.12" width="1935.63" height="180.61" style="fill:none;stroke:#000000;stroke-width:5.76"/>
	<line x1="1197.40" y1="2651.43" x2="1571.75" y2="2651.43" style="stroke:#1A476F;stroke-width:8.64"/>
	<circle cx="1384.64" cy="2651.43" r="26.35" style="fill:#1A476F"/>
	<circle cx="1384.64" cy="2651.43" r="22.03" style="fill:none;stroke:#1A476F;stroke-width:8.64"/>
	<line x1="2194.95" y1="2651.43" x2="2569.30" y2="2651.43" style="stroke:#90353B;stroke-width:8.64"/>
	<circle cx="2382.06" cy="2651.43" r="26.35" style="fill:#90353B"/>
	<circle cx="2382.06" cy="2651.43" r="22.03" style="fill:none;stroke:#90353B;stroke-width:8.64"/>
	<text x="1631.77" y="2686.46" style="font-family:'Helvetica';font-size:99.99px;fill:#000000">female=0</text>
	<text x="2629.32" y="2686.46" style="font-family:'Helvetica';font-size:99.99px;fill:#000000">female=1</text>
	<text x="1979.88" y="206.19" style="font-family:'Helvetica';font-size:125.98px;fill:#1E2D53" text-anchor="middle">Adjusted Predictions of female with 95% CIs</text>
</svg>
