<?xml version="1.0" encoding="UTF-8" standalone="no"?>
<!-- This is a Stata 17.0 generated SVG file (http://www.stata.com) -->

<svg version="1.1" width="5.500in" height="4.000in" viewBox="0 0 3960 2880" xmlns="http://www.w3.org/2000/svg" xmlns:xlink="http://www.w3.org/1999/xlink">
	<desc>Stata Graph - Graph</desc>
	<rect x="0" y="0" width="3960" height="2880" style="fill:#EAF2F3;stroke:none"/>
	<rect x="0.00" y="0.00" width="3959.88" height="2880.00" style="fill:#EAF2F3"/>
	<rect x="2.88" y="2.88" width="3954.12" height="2874.24" style="fill:none;stroke:#EAF2F3;stroke-width:5.76"/>
	<rect x="390.80" y="261.37" width="3468.22" height="2227.82" style="fill:#FFFFFF"/>
	<rect x="393.68" y="264.25" width="3462.46" height="2222.06" style="fill:none;stroke:#FFFFFF;stroke-width:5.76"/>
	<line x1="390.80" y1="2425.82" x2="3859.02" y2="2425.82" style="stroke:#EAF2F3;stroke-width:8.64"/>
	<line x1="390.80" y1="1725.50" x2="3859.02" y2="1725.50" style="stroke:#EAF2F3;stroke-width:8.64"/>
	<line x1="390.80" y1="1025.05" x2="3859.02" y2="1025.05" style="stroke:#EAF2F3;stroke-width:8.64"/>
	<line x1="390.80" y1="324.73" x2="3859.02" y2="324.73" style="stroke:#EAF2F3;stroke-width:8.64"/>
	<line x1="454.16" y1="989.66" x2="454.16" y2="880.51" style="stroke:#1A476F;stroke-width:8.64"/>
	<line x1="432.14" y1="880.51" x2="476.19" y2="880.51" stroke-linecap="round" style="stroke:#1A476F;stroke-width:8.64"/>
	<line x1="432.14" y1="989.66" x2="476.19" y2="989.66" stroke-linecap="round" style="stroke:#1A476F;stroke-width:8.64"/>
	<line x1="1289.47" y1="958.72" x2="1289.47" y2="719.01" style="stroke:#1A476F;stroke-width:8.64"/>
	<line x1="1267.45" y1="719.01" x2="1311.50" y2="719.01" stroke-linecap="round" style="stroke:#1A476F;stroke-width:8.64"/>
	<line x1="1267.45" y1="958.72" x2="1311.50" y2="958.72" stroke-linecap="round" style="stroke:#1A476F;stroke-width:8.64"/>
	<line x1="2124.91" y1="985.95" x2="2124.91" y2="583.00" style="stroke:#1A476F;stroke-width:8.64"/>
	<line x1="2102.88" y1="583.00" x2="2146.94" y2="583.00" stroke-linecap="round" style="stroke:#1A476F;stroke-width:8.64"/>
	<line x1="2102.88" y1="985.95" x2="2146.94" y2="985.95" stroke-linecap="round" style="stroke:#1A476F;stroke-width:8.64"/>
	<line x1="2960.35" y1="1264.64" x2="2960.35" y2="516.18" style="stroke:#1A476F;stroke-width:8.64"/>
	<line x1="2938.32" y1="516.18" x2="2982.38" y2="516.18" stroke-linecap="round" style="stroke:#1A476F;stroke-width:8.64"/>
	<line x1="2938.32" y1="1264.64" x2="2982.38" y2="1264.64" stroke-linecap="round" style="stroke:#1A476F;stroke-width:8.64"/>
	<line x1="3795.66" y1="2261.11" x2="3795.66" y2="509.37" style="stroke:#1A476F;stroke-width:8.64"/>
	<line x1="3773.63" y1="509.37" x2="3817.69" y2="509.37" stroke-linecap="round" style="stroke:#1A476F;stroke-width:8.64"/>
	<line x1="3773.63" y1="2261.11" x2="3817.69" y2="2261.11" stroke-linecap="round" style="stroke:#1A476F;stroke-width:8.64"/>
	<path d=" M454.04 935.08 L1289.47 838.93 L2124.91 784.48 L2960.22 890.53 L3795.66 1385.30" stroke-linejoin="round" style="fill:none;stroke:#1A476F;stroke-width:8.64"/>
	<circle cx="454.04" cy="935.08" r="26.35" style="fill:#1A476F"/>
	<circle cx="454.04" cy="935.08" r="22.03" style="fill:none;stroke:#1A476F;stroke-width:8.64"/>
	<circle cx="1289.47" cy="838.93" r="26.35" style="fill:#1A476F"/>
	<circle cx="1289.47" cy="838.93" r="22.03" style="fill:none;stroke:#1A476F;stroke-width:8.64"/>
	<circle cx="2124.91" cy="784.48" r="26.35" style="fill:#1A476F"/>
	<circle cx="2124.91" cy="784.48" r="22.03" style="fill:none;stroke:#1A476F;stroke-width:8.64"/>
	<circle cx="2960.22" cy="890.53" r="26.35" style="fill:#1A476F"/>
	<circle cx="2960.22" cy="890.53" r="22.03" style="fill:none;stroke:#1A476F;stroke-width:8.64"/>
	<circle cx="3795.66" cy="1385.30" r="26.35" style="fill:#1A476F"/>
	<circle cx="3795.66" cy="1385.30" r="22.03" style="fill:none;stroke:#1A476F;stroke-width:8.64"/>
	<line x1="390.80" y1="2489.19" x2="390.80" y2="261.37" style="stroke:#000000;stroke-width:5.76"/>
	<line x1="390.80" y1="2425.82" x2="350.83" y2="2425.82" style="stroke:#000000;stroke-width:5.76"/>
	<text x="300.72" y="2425.82" style="font-family:'Helvetica';font-size:99.99px;fill:#000000" transform="rotate(-90 300.72,2425.82)" text-anchor="middle">-.04</text>
	<line x1="390.80" y1="1725.50" x2="350.83" y2="1725.50" style="stroke:#000000;stroke-width:5.76"/>
	<text x="300.72" y="1725.50" style="font-family:'Helvetica';font-size:99.99px;fill:#000000" transform="rotate(-90 300.72,1725.50)" text-anchor="middle">-.02</text>
	<line x1="390.80" y1="1025.05" x2="350.83" y2="1025.05" style="stroke:#000000;stroke-width:5.76"/>
	<text x="300.72" y="1025.05" style="font-family:'Helvetica';font-size:99.99px;fill:#000000" transform="rotate(-90 300.72,1025.05)" text-anchor="middle">0</text>
	<line x1="390.80" y1="324.73" x2="350.83" y2="324.73" style="stroke:#000000;stroke-width:5.76"/>
	<text x="300.72" y="324.73" style="font-family:'Helvetica';font-size:99.99px;fill:#000000" transform="rotate(-90 300.72,324.73)" text-anchor="middle">.02</text>
	<text x="190.71" y="1375.28" style="font-family:'Helvetica';font-size:99.99px;fill:#000000" transform="rotate(-90 190.71,1375.28)" text-anchor="middle">Contrasts of Pr(diabetes)</text>
	<line x1="390.80" y1="2489.19" x2="3859.02" y2="2489.19" style="stroke:#000000;stroke-width:5.76"/>
	<line x1="454.16" y1="2489.19" x2="454.16" y2="2529.16" style="stroke:#000000;stroke-width:5.76"/>
	<text x="454.16" y="2619.14" style="font-family:'Helvetica';font-size:99.99px;fill:#000000" text-anchor="middle">30</text>
	<line x1="1289.47" y1="2489.19" x2="1289.47" y2="2529.16" style="stroke:#000000;stroke-width:5.76"/>
	<text x="1289.47" y="2619.14" style="font-family:'Helvetica';font-size:99.99px;fill:#000000" text-anchor="middle">40</text>
	<line x1="2124.91" y1="2489.19" x2="2124.91" y2="2529.16" style="stroke:#000000;stroke-width:5.76"/>
	<text x="2124.91" y="2619.14" style="font-family:'Helvetica';font-size:99.99px;fill:#000000" text-anchor="middle">50</text>
	<line x1="2960.35" y1="2489.19" x2="2960.35" y2="2529.16" style="stroke:#000000;stroke-width:5.76"/>
	<text x="2960.35" y="2619.14" style="font-family:'Helvetica';font-size:99.99px;fill:#000000" text-anchor="middle">60</text>
	<line x1="3795.66" y1="2489.19" x2="3795.66" y2="2529.16" style="stroke:#000000;stroke-width:5.76"/>
	<text x="3795.66" y="2619.14" style="font-family:'Helvetica';font-size:99.99px;fill:#000000" text-anchor="middle">70</text>
	<text x="2124.91" y="2729.16" style="font-family:'Helvetica';font-size:99.99px;fill:#000000" text-anchor="middle">Age (years)</text>
	<text x="1980.00" y="206.19" style="font-family:'Helvetica';font-size:125.98px;fill:#1E2D53" text-anchor="middle">Contrasts of adjusted predictions of female with 95% CIs</text>
</svg>
