<?xml version="1.0" encoding="UTF-8" standalone="no"?>
<!-- This is a Stata 17.0 generated SVG file (http://www.stata.com) -->

<svg version="1.1" width="5.500in" height="4.000in" viewBox="0 0 3960 2880" xmlns="http://www.w3.org/2000/svg" xmlns:xlink="http://www.w3.org/1999/xlink">
	<desc>Stata Graph - Graph</desc>
	<rect x="0" y="0" width="3960" height="2880" style="fill:#EAF2F3;stroke:none"/>
	<rect x="0.00" y="0.00" width="3959.88" height="2880.00" style="fill:#EAF2F3"/>
	<rect x="2.88" y="2.88" width="3954.12" height="2874.24" style="fill:none;stroke:#EAF2F3;stroke-width:5.76"/>
	<rect x="390.80" y="261.37" width="3468.22" height="2227.82" style="fill:#FFFFFF"/>
	<rect x="393.68" y="264.25" width="3462.46" height="2222.06" style="fill:none;stroke:#FFFFFF;stroke-width:5.76"/>
	<line x1="390.80" y1="2425.82" x2="3859.02" y2="2425.82" style="stroke:#EAF2F3;stroke-width:8.64"/>
	<line x1="390.80" y1="2017.19" x2="3859.02" y2="2017.19" style="stroke:#EAF2F3;stroke-width:8.64"/>
	<line x1="390.80" y1="1608.43" x2="3859.02" y2="1608.43" style="stroke:#EAF2F3;stroke-width:8.64"/>
	<line x1="390.80" y1="1199.79" x2="3859.02" y2="1199.79" style="stroke:#EAF2F3;stroke-width:8.64"/>
	<line x1="390.80" y1="791.16" x2="3859.02" y2="791.16" style="stroke:#EAF2F3;stroke-width:8.64"/>
	<line x1="390.80" y1="382.40" x2="3859.02" y2="382.40" style="stroke:#EAF2F3;stroke-width:8.64"/>
	<line x1="454.16" y1="1118.24" x2="454.16" y2="782.99" style="stroke:#1A476F;stroke-width:8.64"/>
	<line x1="432.14" y1="782.99" x2="476.19" y2="782.99" stroke-linecap="round" style="stroke:#1A476F;stroke-width:8.64"/>
	<line x1="432.14" y1="1118.24" x2="476.19" y2="1118.24" stroke-linecap="round" style="stroke:#1A476F;stroke-width:8.64"/>
	<line x1="1122.41" y1="1071.21" x2="1122.41" y2="620.01" style="stroke:#1A476F;stroke-width:8.64"/>
	<line x1="1100.39" y1="620.01" x2="1144.44" y2="620.01" stroke-linecap="round" style="stroke:#1A476F;stroke-width:8.64"/>
	<line x1="1100.39" y1="1071.21" x2="1144.44" y2="1071.21" stroke-linecap="round" style="stroke:#1A476F;stroke-width:8.64"/>
	<line x1="1790.79" y1="1021.09" x2="1790.79" y2="445.39" style="stroke:#1A476F;stroke-width:8.64"/>
	<line x1="1768.76" y1="445.39" x2="1812.81" y2="445.39" stroke-linecap="round" style="stroke:#1A476F;stroke-width:8.64"/>
	<line x1="1768.76" y1="1021.09" x2="1812.81" y2="1021.09" stroke-linecap="round" style="stroke:#1A476F;stroke-width:8.64"/>
	<line x1="2459.04" y1="1014.91" x2="2459.04" y2="324.73" style="stroke:#1A476F;stroke-width:8.64"/>
	<line x1="2437.01" y1="324.73" x2="2481.06" y2="324.73" stroke-linecap="round" style="stroke:#1A476F;stroke-width:8.64"/>
	<line x1="2437.01" y1="1014.91" x2="2481.06" y2="1014.91" stroke-linecap="round" style="stroke:#1A476F;stroke-width:8.64"/>
	<line x1="3127.41" y1="1249.54" x2="3127.41" y2="337.35" style="stroke:#1A476F;stroke-width:8.64"/>
	<line x1="3105.38" y1="337.35" x2="3149.44" y2="337.35" stroke-linecap="round" style="stroke:#1A476F;stroke-width:8.64"/>
	<line x1="3105.38" y1="1249.54" x2="3149.44" y2="1249.54" stroke-linecap="round" style="stroke:#1A476F;stroke-width:8.64"/>
	<line x1="3795.66" y1="2325.46" x2="3795.66" y2="416.56" style="stroke:#1A476F;stroke-width:8.64"/>
	<line x1="3773.63" y1="416.56" x2="3817.69" y2="416.56" stroke-linecap="round" style="stroke:#1A476F;stroke-width:8.64"/>
	<line x1="3773.63" y1="2325.46" x2="3817.69" y2="2325.46" stroke-linecap="round" style="stroke:#1A476F;stroke-width:8.64"/>
	<path d=" M454.04 950.68 L1122.41 845.61 L1790.66 733.37 L2459.04 669.88 L3127.29 793.51 L3795.66 1371.07" stroke-linejoin="round" style="fill:none;stroke:#1A476F;stroke-width:8.64"/>
	<circle cx="454.04" cy="950.68" r="26.35" style="fill:#1A476F"/>
	<circle cx="454.04" cy="950.68" r="22.03" style="fill:none;stroke:#1A476F;stroke-width:8.64"/>
	<circle cx="1122.41" cy="845.61" r="26.35" style="fill:#1A476F"/>
	<circle cx="1122.41" cy="845.61" r="22.03" style="fill:none;stroke:#1A476F;stroke-width:8.64"/>
	<circle cx="1790.66" cy="733.37" r="26.35" style="fill:#1A476F"/>
	<circle cx="1790.66" cy="733.37" r="22.03" style="fill:none;stroke:#1A476F;stroke-width:8.64"/>
	<circle cx="2459.04" cy="669.88" r="26.35" style="fill:#1A476F"/>
	<circle cx="2459.04" cy="669.88" r="22.03" style="fill:none;stroke:#1A476F;stroke-width:8.64"/>
	<circle cx="3127.29" cy="793.51" r="26.35" style="fill:#1A476F"/>
	<circle cx="3127.29" cy="793.51" r="22.03" style="fill:none;stroke:#1A476F;stroke-width:8.64"/>
	<circle cx="3795.66" cy="1371.07" r="26.35" style="fill:#1A476F"/>
	<circle cx="3795.66" cy="1371.07" r="22.03" style="fill:none;stroke:#1A476F;stroke-width:8.64"/>
	<line x1="390.80" y1="2489.19" x2="390.80" y2="261.37" style="stroke:#000000;stroke-width:5.76"/>
	<line x1="390.80" y1="2425.82" x2="350.83" y2="2425.82" style="stroke:#000000;stroke-width:5.76"/>
	<text x="300.72" y="2425.82" style="font-family:'Helvetica';font-size:99.99px;fill:#000000" transform="rotate(-90 300.72,2425.82)" text-anchor="middle">-.03</text>
	<line x1="390.80" y1="2017.19" x2="350.83" y2="2017.19" style="stroke:#000000;stroke-width:5.76"/>
	<text x="300.72" y="2017.19" style="font-family:'Helvetica';font-size:99.99px;fill:#000000" transform="rotate(-90 300.72,2017.19)" text-anchor="middle">-.02</text>
	<line x1="390.80" y1="1608.43" x2="350.83" y2="1608.43" style="stroke:#000000;stroke-width:5.76"/>
	<text x="300.72" y="1608.43" style="font-family:'Helvetica';font-size:99.99px;fill:#000000" transform="rotate(-90 300.72,1608.43)" text-anchor="middle">-.01</text>
	<line x1="390.80" y1="1199.79" x2="350.83" y2="1199.79" style="stroke:#000000;stroke-width:5.76"/>
	<text x="300.72" y="1199.79" style="font-family:'Helvetica';font-size:99.99px;fill:#000000" transform="rotate(-90 300.72,1199.79)" text-anchor="middle">0</text>
	<line x1="390.80" y1="791.16" x2="350.83" y2="791.16" style="stroke:#000000;stroke-width:5.76"/>
	<text x="300.72" y="791.16" style="font-family:'Helvetica';font-size:99.99px;fill:#000000" transform="rotate(-90 300.72,791.16)" text-anchor="middle">.01</text>
	<line x1="390.80" y1="382.40" x2="350.83" y2="382.40" style="stroke:#000000;stroke-width:5.76"/>
	<text x="300.72" y="382.40" style="font-family:'Helvetica';font-size:99.99px;fill:#000000" transform="rotate(-90 300.72,382.40)" text-anchor="middle">.02</text>
	<text x="190.71" y="1375.28" style="font-family:'Helvetica';font-size:99.99px;fill:#000000" transform="rotate(-90 190.71,1375.28)" text-anchor="middle">Contrasts of Pr(diabetes)</text>
	<line x1="390.80" y1="2489.19" x2="3859.02" y2="2489.19" style="stroke:#000000;stroke-width:5.76"/>
	<line x1="454.16" y1="2489.19" x2="454.16" y2="2529.16" style="stroke:#000000;stroke-width:5.76"/>
	<text x="454.16" y="2619.14" style="font-family:'Helvetica';font-size:99.99px;fill:#000000" text-anchor="middle">20</text>
	<line x1="1122.41" y1="2489.19" x2="1122.41" y2="2529.16" style="stroke:#000000;stroke-width:5.76"/>
	<text x="1122.41" y="2619.14" style="font-family:'Helvetica';font-size:99.99px;fill:#000000" text-anchor="middle">30</text>
	<line x1="1790.79" y1="2489.19" x2="1790.79" y2="2529.16" style="stroke:#000000;stroke-width:5.76"/>
	<text x="1790.79" y="2619.14" style="font-family:'Helvetica';font-size:99.99px;fill:#000000" text-anchor="middle">40</text>
	<line x1="2459.04" y1="2489.19" x2="2459.04" y2="2529.16" style="stroke:#000000;stroke-width:5.76"/>
	<text x="2459.04" y="2619.14" style="font-family:'Helvetica';font-size:99.99px;fill:#000000" text-anchor="middle">50</text>
	<line x1="3127.41" y1="2489.19" x2="3127.41" y2="2529.16" style="stroke:#000000;stroke-width:5.76"/>
	<text x="3127.41" y="2619.14" style="font-family:'Helvetica';font-size:99.99px;fill:#000000" text-anchor="middle">60</text>
	<line x1="3795.66" y1="2489.19" x2="3795.66" y2="2529.16" style="stroke:#000000;stroke-width:5.76"/>
	<text x="3795.66" y="2619.14" style="font-family:'Helvetica';font-size:99.99px;fill:#000000" text-anchor="middle">70</text>
	<text x="2124.91" y="2729.16" style="font-family:'Helvetica';font-size:99.99px;fill:#000000" text-anchor="middle">Age (years)</text>
	<text x="1980.00" y="206.19" style="font-family:'Helvetica';font-size:125.98px;fill:#1E2D53" text-anchor="middle">Contrasts of adjusted predictions of female with 95% CIs</text>
</svg>
